# xmcd CD database file
#
# Track frame offsets:
#	150
#	17515
#	38640
#	60717
#	83330
#	103110
#	123122
#	139455
#	161842
#	180350
#	201462
#	220357
#	235885
#	253675
#
# Disc length: 3687 seconds
#
# Revision: 2
# Processed by: cddbd v1.5PL3 Copyright (c) Steve Scherf et al.
# Submitted via: CDex 1.50
#
DISCID=be0e650e
DTITLE=TOM★CAT - TOM★CAT ベスト
DYEAR=1987
DGENRE=Pop
TTITLE0=TOUGH BOY
TTITLE1=LOVE SONG
TTITLE2=LADY BLUE
TTITLE3=LADY BLUE II -クリスマス・ソング-
TTITLE4=ひとりぼっちの反乱軍
TTITLE5=五月の夜の窓際で
TTITLE6=生まれついてのCRAZY
TTITLE7=SALLY
TTITLE8=サマータイム グラフィティ
TTITLE9=ON THE STREET
TTITLE10=ふられ気分でRock'n'Roll
TTITLE11=ROUTE 16
TTITLE12=FENCE
TTITLE13=ダイヤモンド・シンドローム
EXTD=YEAR: 1987
EXTT0=
EXTT1=
EXTT2=
EXTT3=
EXTT4=
EXTT5=
EXTT6=
EXTT7=
EXTT8=
EXTT9=
EXTT10=
EXTT11=
EXTT12=
EXTT13=
PLAYORDER=
